<svg width="9" height="9" viewBox="0 0 9 9" fill="none" xmlns="http://www.w3.org/2000/svg">
<path d="M6.24831 1.76423C6.20771 1.76423 6.1748 1.79714 6.1748 1.83774V2.57283C6.1748 2.61343 6.20771 2.64634 6.24831 2.64634H6.9834C7.024 2.64634 7.05691 2.61343 7.05691 2.57283V1.83774C7.05691 1.79714 7.024 1.76423 6.9834 1.76423H6.24831ZM6.1748 7.05691V6.83638C6.1748 6.71459 6.27353 6.61585 6.39532 6.61585C6.51712 6.61585 6.61585 6.71459 6.61585 6.83638V7.05691H7.05691V6.83638C7.05691 6.71459 7.15564 6.61585 7.27744 6.61585C7.39923 6.61585 7.49797 6.71459 7.49797 6.83638V7.27744C7.49797 7.39923 7.39923 7.49797 7.27744 7.49797H5.51321C5.39142 7.49797 5.29268 7.39923 5.29268 7.27744V6.83638C5.29268 6.71459 5.39142 6.61585 5.51321 6.61585C5.63501 6.61585 5.73374 6.71459 5.73374 6.83638V7.05691H6.1748ZM4.85163 3.96951H5.07215C5.19395 3.96951 5.29268 4.06825 5.29268 4.19004C5.29268 4.31183 5.19395 4.41057 5.07215 4.41057H4.19004C4.06825 4.41057 3.96951 4.31183 3.96951 4.19004C3.96951 4.06825 4.06825 3.96951 4.19004 3.96951H4.41057V3.52846H3.74898C3.62719 3.52846 3.52846 3.42972 3.52846 3.30793C3.52846 3.18613 3.62719 3.0874 3.74898 3.0874H5.07215C5.19395 3.0874 5.29268 3.18613 5.29268 3.30793C5.29268 3.42972 5.19395 3.52846 5.07215 3.52846H4.85163V3.96951ZM7.05691 4.41057H6.83638C6.71459 4.41057 6.61585 4.31183 6.61585 4.19004C6.61585 4.06825 6.71459 3.96951 6.83638 3.96951H7.05691V3.74898C7.05691 3.62719 7.15564 3.52846 7.27744 3.52846C7.39923 3.52846 7.49797 3.62719 7.49797 3.74898V4.6311C7.49797 4.75289 7.39923 4.85163 7.27744 4.85163C7.15564 4.85163 7.05691 4.75289 7.05691 4.6311V4.41057ZM4.85163 5.29268H4.6311C4.5093 5.29268 4.41057 5.19395 4.41057 5.07215C4.41057 4.95036 4.5093 4.85163 4.6311 4.85163H5.07215C5.19395 4.85163 5.29268 4.95036 5.29268 5.07215V5.95427C5.29268 6.07606 5.19395 6.1748 5.07215 6.1748H3.74898C3.62719 6.1748 3.52846 6.07606 3.52846 5.95427C3.52846 5.83247 3.62719 5.73374 3.74898 5.73374H4.85163V5.29268ZM6.24831 1.32317H6.9834C7.26759 1.32317 7.49797 1.55355 7.49797 1.83774V2.57283C7.49797 2.85702 7.26759 3.0874 6.9834 3.0874H6.24831C5.96412 3.0874 5.73374 2.85702 5.73374 2.57283V1.83774C5.73374 1.55355 5.96412 1.32317 6.24831 1.32317ZM1.83774 1.32317H2.57283C2.85702 1.32317 3.0874 1.55355 3.0874 1.83774V2.57283C3.0874 2.85702 2.85702 3.0874 2.57283 3.0874H1.83774C1.55355 3.0874 1.32317 2.85702 1.32317 2.57283V1.83774C1.32317 1.55355 1.55355 1.32317 1.83774 1.32317ZM1.83774 1.76423C1.79714 1.76423 1.76423 1.79714 1.76423 1.83774V2.57283C1.76423 2.61343 1.79714 2.64634 1.83774 2.64634H2.57283C2.61343 2.64634 2.64634 2.61343 2.64634 2.57283V1.83774C2.64634 1.79714 2.61343 1.76423 2.57283 1.76423H1.83774ZM1.83774 5.73374H2.57283C2.85702 5.73374 3.0874 5.96412 3.0874 6.24831V6.9834C3.0874 7.26759 2.85702 7.49797 2.57283 7.49797H1.83774C1.55355 7.49797 1.32317 7.26759 1.32317 6.9834V6.24831C1.32317 5.96412 1.55355 5.73374 1.83774 5.73374ZM1.83774 6.1748C1.79714 6.1748 1.76423 6.20771 1.76423 6.24831V6.9834C1.76423 7.024 1.79714 7.05691 1.83774 7.05691H2.57283C2.61343 7.05691 2.64634 7.024 2.64634 6.9834V6.24831C2.64634 6.20771 2.61343 6.1748 2.57283 6.1748H1.83774ZM4.85163 1.76423H3.74898C3.62719 1.76423 3.52846 1.66549 3.52846 1.5437C3.52846 1.4219 3.62719 1.32317 3.74898 1.32317H5.07215C5.19395 1.32317 5.29268 1.4219 5.29268 1.5437V2.42581C5.29268 2.54761 5.19395 2.64634 5.07215 2.64634C4.95036 2.64634 4.85163 2.54761 4.85163 2.42581V1.76423ZM3.74898 2.64634C3.62719 2.64634 3.52846 2.54761 3.52846 2.42581C3.52846 2.30402 3.62719 2.20528 3.74898 2.20528H4.19004C4.31183 2.20528 4.41057 2.30402 4.41057 2.42581C4.41057 2.54761 4.31183 2.64634 4.19004 2.64634H3.74898ZM1.5437 5.29268C1.4219 5.29268 1.32317 5.19395 1.32317 5.07215C1.32317 4.95036 1.4219 4.85163 1.5437 4.85163H2.42581C2.54761 4.85163 2.64634 4.95036 2.64634 5.07215C2.64634 5.19395 2.54761 5.29268 2.42581 5.29268H1.5437ZM3.30793 5.29268C3.18613 5.29268 3.0874 5.19395 3.0874 5.07215C3.0874 4.95036 3.18613 4.85163 3.30793 4.85163H3.74898C3.87078 4.85163 3.96951 4.95036 3.96951 5.07215C3.96951 5.19395 3.87078 5.29268 3.74898 5.29268H3.30793ZM3.96951 7.05691V7.27744C3.96951 7.39923 3.87078 7.49797 3.74898 7.49797C3.62719 7.49797 3.52846 7.39923 3.52846 7.27744V6.83638C3.52846 6.71459 3.62719 6.61585 3.74898 6.61585H4.6311C4.75289 6.61585 4.85163 6.71459 4.85163 6.83638C4.85163 6.95818 4.75289 7.05691 4.6311 7.05691H3.96951ZM3.0874 3.96951H3.30793C3.42972 3.96951 3.52846 4.06825 3.52846 4.19004C3.52846 4.31183 3.42972 4.41057 3.30793 4.41057H2.86687C2.74508 4.41057 2.64634 4.31183 2.64634 4.19004V3.96951H2.42581C2.30402 3.96951 2.20528 3.87078 2.20528 3.74898C2.20528 3.62719 2.30402 3.52846 2.42581 3.52846H2.86687C2.98866 3.52846 3.0874 3.62719 3.0874 3.74898V3.96951ZM1.32317 3.74898C1.32317 3.62719 1.4219 3.52846 1.5437 3.52846C1.66549 3.52846 1.76423 3.62719 1.76423 3.74898V4.19004C1.76423 4.31183 1.66549 4.41057 1.5437 4.41057C1.4219 4.41057 1.32317 4.31183 1.32317 4.19004V3.74898ZM5.73374 3.74898C5.73374 3.62719 5.83247 3.52846 5.95427 3.52846C6.07606 3.52846 6.1748 3.62719 6.1748 3.74898V4.6311C6.1748 4.75289 6.07606 4.85163 5.95427 4.85163C5.83247 4.85163 5.73374 4.75289 5.73374 4.6311V3.74898ZM6.61585 5.73374V5.51321C6.61585 5.39142 6.71459 5.29268 6.83638 5.29268H7.27744C7.39923 5.29268 7.49797 5.39142 7.49797 5.51321C7.49797 5.63501 7.39923 5.73374 7.27744 5.73374H7.05691V5.95427C7.05691 6.07606 6.95818 6.1748 6.83638 6.1748H5.95427C5.83247 6.1748 5.73374 6.07606 5.73374 5.95427V5.51321C5.73374 5.39142 5.83247 5.29268 5.95427 5.29268C6.07606 5.29268 6.1748 5.39142 6.1748 5.51321V5.73374H6.61585ZM0.441057 1.98476C0.441057 2.10655 0.342323 2.20528 0.220528 2.20528C0.098734 2.20528 0 2.10655 0 1.98476V1.10264C0 0.49367 0.49367 0 1.10264 0H1.98476C2.10655 0 2.20528 0.098734 2.20528 0.220528C2.20528 0.342323 2.10655 0.441057 1.98476 0.441057H1.10264C0.737259 0.441057 0.441057 0.737259 0.441057 1.10264V1.98476ZM6.83638 0.441057C6.71459 0.441057 6.61585 0.342323 6.61585 0.220528C6.61585 0.098734 6.71459 0 6.83638 0H7.7185C8.32747 0 8.82114 0.49367 8.82114 1.10264V1.98476C8.82114 2.10655 8.7224 2.20528 8.60061 2.20528C8.47882 2.20528 8.38008 2.10655 8.38008 1.98476V1.10264C8.38008 0.737259 8.08388 0.441057 7.7185 0.441057H6.83638ZM1.98476 8.38008C2.10655 8.38008 2.20528 8.47882 2.20528 8.60061C2.20528 8.7224 2.10655 8.82114 1.98476 8.82114H1.10264C0.49367 8.82114 0 8.32747 0 7.7185V6.83638C0 6.71459 0.098734 6.61585 0.220528 6.61585C0.342323 6.61585 0.441057 6.71459 0.441057 6.83638V7.7185C0.441057 8.08388 0.737259 8.38008 1.10264 8.38008H1.98476ZM8.38008 6.83638C8.38008 6.71459 8.47882 6.61585 8.60061 6.61585C8.7224 6.61585 8.82114 6.71459 8.82114 6.83638V7.7185C8.82114 8.32747 8.32747 8.82114 7.7185 8.82114H6.83638C6.71459 8.82114 6.61585 8.7224 6.61585 8.60061C6.61585 8.47882 6.71459 8.38008 6.83638 8.38008H7.7185C8.08388 8.38008 8.38008 8.08388 8.38008 7.7185V6.83638Z" fill="black"/>
</svg>
