<svg width="108" height="22" viewBox="0 0 108 22" fill="none" xmlns="http://www.w3.org/2000/svg">
<path d="M38.2778 20.6318C38.4304 20.5555 38.5764 20.4327 38.739 20.4078C40.5375 20.134 42.3044 19.7707 43.947 18.9295C47.5323 17.0912 50.6946 11.5846 48.2623 6.57406C46.6878 3.32882 43.197 1.90032 39.8042 3.12144C38.4221 3.61917 37.3901 4.57316 36.768 5.83741C35.7874 7.82669 34.9297 9.87902 34.1084 11.9396C33.3684 13.8012 32.6102 15.6378 31.5567 17.355C30.0436 19.8221 27.8552 20.9205 25.0048 20.8923C21.3265 20.8574 18.3783 18.9146 16.9498 15.5267C16.9033 15.4172 16.842 15.3126 16.7325 15.0986C16.5997 15.3093 16.5134 15.4503 16.4239 15.5914C15.8249 16.5387 15.289 17.5359 14.6138 18.4251C13.2151 20.2684 11.2358 20.8773 9.00262 20.8906C4.30897 20.9205 0.657253 17.6271 0.121358 12.9501C-0.225398 9.91387 0.164496 7.00543 1.37399 4.20982C1.87339 3.05341 2.58349 2.02974 3.59721 1.25161C5.48031 -0.191824 7.50775 -0.306302 9.66129 0.581326C10.826 1.06081 12.0073 1.50877 13.2052 1.89701C13.6664 2.04633 14.194 1.99158 14.6917 2.02974C14.705 2.08283 14.7166 2.13592 14.7299 2.19067C14.5573 2.23215 14.3798 2.32672 14.2139 2.30847C12.8153 2.14753 11.4133 2.00319 10.023 1.78584C5.77066 1.1222 1.59963 3.94104 0.599184 8.16681C0.083198 10.3452 0.00356024 12.4921 0.972485 14.576C2.10069 16.9983 4.46493 18.2891 7.14441 18.1431C9.4456 18.017 11.1761 17.0879 12.2561 15.0306C12.5316 14.5063 12.8153 13.9837 13.0326 13.4362C14.0281 10.9359 14.9539 8.40739 16.0041 5.93198C16.4454 4.89006 17.0643 3.90454 17.7163 2.97377C19.0917 1.00938 21.071 0.123409 23.432 0.0288391C27.2828 -0.125459 30.0369 1.61993 31.8918 4.91992C31.9814 5.0792 32.066 5.24179 32.1556 5.40106C32.1639 5.41765 32.1888 5.42429 32.2784 5.48734C32.4543 5.1804 32.6334 4.8801 32.801 4.57316C33.9209 2.54074 35.3594 0.860058 37.7336 0.29098C42.0572 -0.74431 45.9578 1.02265 48.0433 4.95974C49.3126 7.3555 49.5913 9.9205 49.2246 12.5734C48.7966 15.6776 47.5157 18.7619 46.4804 20.8491C43.8043 20.1374 41.0999 20.28 38.3956 20.8458L38.2778 20.6351V20.6318ZM22.8231 18.1481C25.4893 18.2327 27.5018 17.1526 28.5719 14.6871C29.7399 11.9944 30.7802 9.24524 31.8503 6.50936C31.9217 6.32685 31.8387 6.02489 31.7259 5.84073C29.5292 2.27528 25.4992 2.17574 23.0288 3.39353C21.5157 4.14013 20.6198 5.48236 19.9793 6.95068C18.959 9.28672 18.0581 11.6742 17.1423 14.0534C17.051 14.2906 17.1323 14.6656 17.2634 14.9062C18.4613 17.1012 20.3659 18.1182 22.8231 18.1481Z" fill="#19395F"/>
<path d="M73.3929 3.61119C73.3846 3.79204 73.3697 3.97288 73.3697 4.15373C73.3697 9.01992 73.3714 13.8878 73.3664 18.754C73.3664 19.5686 73.5655 20.2721 74.3585 20.7482H71.4667C72.2763 20.2687 72.434 19.5321 72.4356 18.7374C72.4406 14.8318 72.4389 10.9262 72.4389 7.02068C72.4389 5.42627 72.4456 3.8302 72.4356 2.23579C72.4306 1.29838 72.1967 0.855399 71.4551 0.352686C72.3278 0.352686 73.1441 0.370938 73.9587 0.346051C74.3735 0.332778 74.4664 0.618145 74.5842 0.896877C75.4071 2.83141 76.2284 4.76594 77.0463 6.70047C78.4532 10.027 79.8569 13.3535 81.2654 16.6801C81.3633 16.9123 81.5044 17.128 81.7051 17.5013C82.1066 16.5921 82.4534 15.8389 82.7752 15.0757C84.4144 11.205 86.0487 7.33094 87.6846 3.45856C88.0579 2.57425 88.4129 1.6833 88.8277 0.818898C88.9256 0.614827 89.2209 0.385869 89.4366 0.374256C90.3524 0.324482 91.2732 0.352686 92.3517 0.352686C91.3778 0.810603 91.1787 1.54891 91.1787 2.38843C91.1787 7.82867 91.1787 13.2673 91.177 18.7075C91.177 19.5221 91.3811 20.2322 92.1907 20.7432H88.3067C88.9488 20.3285 89.2541 19.7478 89.2541 19.0211C89.2574 13.6422 89.2574 8.26502 89.2541 2.88616C89.2541 2.80818 89.2292 2.72854 89.123 2.61407C87.6331 5.55568 86.4353 8.62505 85.1129 11.6347C83.7774 14.6759 82.4965 17.7402 81.1161 20.9722C78.5727 15.0525 76.0973 9.29367 73.6235 3.53322C73.5472 3.55976 73.4692 3.58631 73.3929 3.61119Z" fill="#545859"/>
<path d="M105.869 3.54236C105.751 1.91642 104.654 1.34901 103.292 1.12005C101.978 0.899385 100.637 0.746746 99.3565 1.22623C97.6891 1.85006 96.9673 3.18731 96.8927 4.89786C96.8247 6.45909 97.6907 7.48443 99.0114 8.11323C100.335 8.74204 101.737 9.20991 103.063 9.83706C104.105 10.3298 105.193 10.8242 106.064 11.5542C108.002 13.1802 108.195 15.8679 107.164 17.8639C106.099 19.9278 104.199 20.6363 102.061 20.983C100.475 21.2402 98.9815 20.8669 97.485 20.4521C96.8413 20.2729 96.1992 20.0821 95.5073 19.883V16.7788C95.7927 18.7316 97.1664 19.5578 98.872 19.9461C100.632 20.3459 102.35 20.2331 103.939 19.2111C105.928 17.9336 106.952 14.023 103.747 12.2942C102.21 11.4647 100.548 10.869 98.9334 10.1871C97.6924 9.66285 96.5526 9.00252 95.7446 7.89257C94.4223 6.07915 94.6661 2.52698 97.4883 0.96409C99.461 -0.129269 101.538 -0.144201 103.672 0.295466C104.329 0.431513 104.997 0.517787 105.653 0.665448C105.796 0.696972 106 0.892748 106.005 1.01884C106.036 1.84674 106.021 2.6763 106.021 3.50586C105.97 3.51747 105.92 3.53075 105.869 3.54236Z" fill="#545859"/>
<path d="M60.7721 0.655955C61.2201 1.85218 61.6266 2.93061 62.0264 4.00903C63.868 8.98639 65.6964 13.9687 67.5596 18.9378C67.8317 19.6612 68.0938 20.4675 69.013 20.7329H65.1572C65.2351 20.8142 65.3131 20.8955 65.3911 20.9768C65.5155 20.718 65.698 20.4708 65.7478 20.2004C65.8009 19.91 65.7976 19.5732 65.698 19.2995C64.8552 16.9784 63.9775 14.6689 63.1297 12.3511C63.0053 12.011 62.8427 11.8716 62.471 11.8749C60.938 11.8932 59.4033 11.8915 57.8687 11.8749C57.5285 11.8716 57.3626 11.9811 57.2465 12.3063C56.4169 14.6324 55.5592 16.9485 54.7329 19.2746C54.4874 19.9648 54.6583 20.3381 55.3451 20.7346H52.4384C53.3011 20.2767 53.6561 19.4986 53.9614 18.6856C56.1216 12.9135 58.2801 7.13979 60.4419 1.36772C60.5183 1.1653 60.6228 0.974507 60.7704 0.654297L60.7721 0.655955ZM62.617 10.9276C61.8207 8.7624 61.0508 6.67026 60.281 4.57977C60.203 4.57977 60.125 4.58143 60.0471 4.58309C59.2772 6.67689 58.5074 8.76904 57.7127 10.9276H62.617Z" fill="#545859"/>
</svg>
