<svg width="19" height="19" viewBox="0 0 19 19" fill="none" xmlns="http://www.w3.org/2000/svg">
<path d="M13.4583 3.8C13.3709 3.8 13.3 3.87089 13.3 3.95833V5.54167C13.3 5.62911 13.3709 5.7 13.4583 5.7H15.0417C15.1291 5.7 15.2 5.62911 15.2 5.54167V3.95833C15.2 3.87089 15.1291 3.8 15.0417 3.8H13.4583ZM13.3 15.2V14.725C13.3 14.4627 13.5127 14.25 13.775 14.25C14.0373 14.25 14.25 14.4627 14.25 14.725V15.2H15.2V14.725C15.2 14.4627 15.4127 14.25 15.675 14.25C15.9373 14.25 16.15 14.4627 16.15 14.725V15.675C16.15 15.9373 15.9373 16.15 15.675 16.15H11.875C11.6127 16.15 11.4 15.9373 11.4 15.675V14.725C11.4 14.4627 11.6127 14.25 11.875 14.25C12.1373 14.25 12.35 14.4627 12.35 14.725V15.2H13.3ZM10.45 8.55H10.925C11.1873 8.55 11.4 8.76266 11.4 9.025C11.4 9.28734 11.1873 9.5 10.925 9.5H9.025C8.76266 9.5 8.55 9.28734 8.55 9.025C8.55 8.76266 8.76266 8.55 9.025 8.55H9.5V7.6H8.075C7.81266 7.6 7.6 7.38734 7.6 7.125C7.6 6.86266 7.81266 6.65 8.075 6.65H10.925C11.1873 6.65 11.4 6.86266 11.4 7.125C11.4 7.38734 11.1873 7.6 10.925 7.6H10.45V8.55ZM15.2 9.5H14.725C14.4627 9.5 14.25 9.28734 14.25 9.025C14.25 8.76266 14.4627 8.55 14.725 8.55H15.2V8.075C15.2 7.81266 15.4127 7.6 15.675 7.6C15.9373 7.6 16.15 7.81266 16.15 8.075V9.975C16.15 10.2373 15.9373 10.45 15.675 10.45C15.4127 10.45 15.2 10.2373 15.2 9.975V9.5ZM10.45 11.4H9.975C9.71266 11.4 9.5 11.1873 9.5 10.925C9.5 10.6627 9.71266 10.45 9.975 10.45H10.925C11.1873 10.45 11.4 10.6627 11.4 10.925V12.825C11.4 13.0873 11.1873 13.3 10.925 13.3H8.075C7.81266 13.3 7.6 13.0873 7.6 12.825C7.6 12.5627 7.81266 12.35 8.075 12.35H10.45V11.4ZM13.4583 2.85H15.0417C15.6538 2.85 16.15 3.34622 16.15 3.95833V5.54167C16.15 6.15378 15.6538 6.65 15.0417 6.65H13.4583C12.8462 6.65 12.35 6.15378 12.35 5.54167V3.95833C12.35 3.34622 12.8462 2.85 13.4583 2.85ZM3.95833 2.85H5.54167C6.15378 2.85 6.65 3.34622 6.65 3.95833V5.54167C6.65 6.15378 6.15378 6.65 5.54167 6.65H3.95833C3.34622 6.65 2.85 6.15378 2.85 5.54167V3.95833C2.85 3.34622 3.34622 2.85 3.95833 2.85ZM3.95833 3.8C3.87089 3.8 3.8 3.87089 3.8 3.95833V5.54167C3.8 5.62911 3.87089 5.7 3.95833 5.7H5.54167C5.62911 5.7 5.7 5.62911 5.7 5.54167V3.95833C5.7 3.87089 5.62911 3.8 5.54167 3.8H3.95833ZM3.95833 12.35H5.54167C6.15378 12.35 6.65 12.8462 6.65 13.4583V15.0417C6.65 15.6538 6.15378 16.15 5.54167 16.15H3.95833C3.34622 16.15 2.85 15.6538 2.85 15.0417V13.4583C2.85 12.8462 3.34622 12.35 3.95833 12.35ZM3.95833 13.3C3.87089 13.3 3.8 13.3709 3.8 13.4583V15.0417C3.8 15.1291 3.87089 15.2 3.95833 15.2H5.54167C5.62911 15.2 5.7 15.1291 5.7 15.0417V13.4583C5.7 13.3709 5.62911 13.3 5.54167 13.3H3.95833ZM10.45 3.8H8.075C7.81266 3.8 7.6 3.58734 7.6 3.325C7.6 3.06266 7.81266 2.85 8.075 2.85H10.925C11.1873 2.85 11.4 3.06266 11.4 3.325V5.225C11.4 5.48734 11.1873 5.7 10.925 5.7C10.6627 5.7 10.45 5.48734 10.45 5.225V3.8ZM8.075 5.7C7.81266 5.7 7.6 5.48734 7.6 5.225C7.6 4.96266 7.81266 4.75 8.075 4.75H9.025C9.28734 4.75 9.5 4.96266 9.5 5.225C9.5 5.48734 9.28734 5.7 9.025 5.7H8.075ZM3.325 11.4C3.06266 11.4 2.85 11.1873 2.85 10.925C2.85 10.6627 3.06266 10.45 3.325 10.45H5.225C5.48734 10.45 5.7 10.6627 5.7 10.925C5.7 11.1873 5.48734 11.4 5.225 11.4H3.325ZM7.125 11.4C6.86266 11.4 6.65 11.1873 6.65 10.925C6.65 10.6627 6.86266 10.45 7.125 10.45H8.075C8.33734 10.45 8.55 10.6627 8.55 10.925C8.55 11.1873 8.33734 11.4 8.075 11.4H7.125ZM8.55 15.2V15.675C8.55 15.9373 8.33734 16.15 8.075 16.15C7.81266 16.15 7.6 15.9373 7.6 15.675V14.725C7.6 14.4627 7.81266 14.25 8.075 14.25H9.975C10.2373 14.25 10.45 14.4627 10.45 14.725C10.45 14.9873 10.2373 15.2 9.975 15.2H8.55ZM6.65 8.55H7.125C7.38734 8.55 7.6 8.76266 7.6 9.025C7.6 9.28734 7.38734 9.5 7.125 9.5H6.175C5.91266 9.5 5.7 9.28734 5.7 9.025V8.55H5.225C4.96266 8.55 4.75 8.33734 4.75 8.075C4.75 7.81266 4.96266 7.6 5.225 7.6H6.175C6.43734 7.6 6.65 7.81266 6.65 8.075V8.55ZM2.85 8.075C2.85 7.81266 3.06266 7.6 3.325 7.6C3.58734 7.6 3.8 7.81266 3.8 8.075V9.025C3.8 9.28734 3.58734 9.5 3.325 9.5C3.06266 9.5 2.85 9.28734 2.85 9.025V8.075ZM12.35 8.075C12.35 7.81266 12.5627 7.6 12.825 7.6C13.0873 7.6 13.3 7.81266 13.3 8.075V9.975C13.3 10.2373 13.0873 10.45 12.825 10.45C12.5627 10.45 12.35 10.2373 12.35 9.975V8.075ZM14.25 12.35V11.875C14.25 11.6127 14.4627 11.4 14.725 11.4H15.675C15.9373 11.4 16.15 11.6127 16.15 11.875C16.15 12.1373 15.9373 12.35 15.675 12.35H15.2V12.825C15.2 13.0873 14.9873 13.3 14.725 13.3H12.825C12.5627 13.3 12.35 13.0873 12.35 12.825V11.875C12.35 11.6127 12.5627 11.4 12.825 11.4C13.0873 11.4 13.3 11.6127 13.3 11.875V12.35H14.25ZM0.95 4.275C0.95 4.53734 0.737335 4.75 0.475 4.75C0.212665 4.75 0 4.53734 0 4.275V2.375C0 1.06332 1.06332 0 2.375 0H4.275C4.53734 0 4.75 0.212665 4.75 0.475C4.75 0.737335 4.53734 0.95 4.275 0.95H2.375C1.58799 0.95 0.95 1.58799 0.95 2.375V4.275ZM14.725 0.95C14.4627 0.95 14.25 0.737335 14.25 0.475C14.25 0.212665 14.4627 0 14.725 0H16.625C17.9367 0 19 1.06332 19 2.375V4.275C19 4.53734 18.7873 4.75 18.525 4.75C18.2627 4.75 18.05 4.53734 18.05 4.275V2.375C18.05 1.58799 17.412 0.95 16.625 0.95H14.725ZM4.275 18.05C4.53734 18.05 4.75 18.2627 4.75 18.525C4.75 18.7873 4.53734 19 4.275 19H2.375C1.06332 19 0 17.9367 0 16.625V14.725C0 14.4627 0.212665 14.25 0.475 14.25C0.737335 14.25 0.95 14.4627 0.95 14.725V16.625C0.95 17.412 1.58799 18.05 2.375 18.05H4.275ZM18.05 14.725C18.05 14.4627 18.2627 14.25 18.525 14.25C18.7873 14.25 19 14.4627 19 14.725V16.625C19 17.9367 17.9367 19 16.625 19H14.725C14.4627 19 14.25 18.7873 14.25 18.525C14.25 18.2627 14.4627 18.05 14.725 18.05H16.625C17.412 18.05 18.05 17.412 18.05 16.625V14.725Z" fill="black"/>
</svg>
