<svg width="282" height="180" viewBox="0 0 282 180" fill="none" xmlns="http://www.w3.org/2000/svg">
<g filter="url(#filter0_d_1504_1249)">
<rect x="5" y="4" width="266" height="164" rx="10" fill="url(#paint0_diamond_1504_1249)"/>
</g>
<mask id="mask0_1504_1249" style="mask-type:alpha" maskUnits="userSpaceOnUse" x="165" y="4" width="106" height="164">
<rect x="165" y="168" width="164" height="106" rx="10" transform="rotate(-90 165 168)" fill="url(#paint1_linear_1504_1249)"/>
</mask>
<g mask="url(#mask0_1504_1249)">
<path d="M166.949 159.021C167.331 159.941 167.945 160.82 168.069 161.799C169.437 172.629 171.253 183.27 175.458 193.161C184.647 214.751 212.171 233.794 237.216 219.147C253.437 209.666 260.577 188.645 254.474 168.213C251.986 159.891 247.217 153.676 240.898 149.93C230.955 144.025 220.696 138.86 210.396 133.914C201.092 129.458 191.911 124.892 183.328 118.548C170.996 109.436 165.506 96.2583 165.647 79.0938C165.822 56.9438 175.533 39.1899 192.467 30.5877C193.014 30.3079 193.537 29.9383 194.607 29.2789C193.553 28.4796 192.848 27.96 192.144 27.4205C187.408 23.8138 182.424 20.5867 177.979 16.5204C168.766 8.09802 165.722 -3.8212 165.656 -17.269C165.506 -45.5335 181.968 -67.5236 205.346 -70.7506C220.522 -72.8388 235.06 -70.4909 249.033 -63.2075C254.814 -60.2002 259.93 -55.9241 263.82 -49.8196C271.035 -38.4798 271.607 -26.2709 267.17 -13.3026C264.774 -6.28897 262.534 0.824593 260.594 8.03807C259.848 10.8156 260.121 13.9927 259.93 16.99C259.665 17.0699 259.4 17.1398 259.126 17.2198C258.919 16.1807 258.446 15.1117 258.537 14.1126C259.342 5.69019 260.063 -2.75217 261.15 -11.1246C264.467 -36.7414 250.377 -61.8487 229.255 -67.8732C218.366 -70.9804 207.635 -71.46 197.219 -65.6253C185.111 -58.8314 178.659 -44.5943 179.389 -28.4589C180.019 -14.6014 184.663 -4.18086 194.947 2.32325C197.567 3.98175 200.179 5.6902 202.916 6.99902C215.414 12.9936 228.052 18.5685 240.425 24.8928C245.633 27.5504 250.559 31.277 255.212 35.2035C265.056 43.496 269.476 55.4052 269.948 69.6223C270.72 92.8114 261.995 109.396 245.501 120.566C244.705 121.106 243.892 121.615 243.096 122.155C243.013 122.205 242.98 122.355 242.664 122.894C244.199 123.953 245.7 125.032 247.234 126.041C257.393 132.785 265.794 141.447 268.638 155.744C273.813 181.781 264.981 205.27 245.302 217.828C233.327 225.471 220.506 227.15 207.245 224.942C191.729 222.364 176.312 214.651 165.88 208.417C169.437 192.301 168.724 176.016 165.896 159.731L166.949 159.021ZM179.364 65.9557C178.941 82.0111 184.34 94.1302 196.663 100.574C210.123 107.608 223.864 113.872 237.539 120.316C238.452 120.746 239.961 120.247 240.881 119.567C258.703 106.339 259.201 82.0711 253.114 67.1945C249.382 58.0828 242.673 52.6877 235.333 48.8312C223.657 42.6867 211.723 37.2616 199.831 31.7466C198.645 31.1971 196.771 31.6867 195.569 32.476C184.597 39.6894 179.513 51.159 179.364 65.9557Z" fill="#1D1D1D" fill-opacity="0.1"/>
</g>
<defs>
<filter id="filter0_d_1504_1249" x="0" y="0" width="282" height="180" filterUnits="userSpaceOnUse" color-interpolation-filters="sRGB">
<feFlood flood-opacity="0" result="BackgroundImageFix"/>
<feColorMatrix in="SourceAlpha" type="matrix" values="0 0 0 0 0 0 0 0 0 0 0 0 0 0 0 0 0 0 127 0" result="hardAlpha"/>
<feOffset dx="3" dy="4"/>
<feGaussianBlur stdDeviation="4"/>
<feComposite in2="hardAlpha" operator="out"/>
<feColorMatrix type="matrix" values="0 0 0 0 0 0 0 0 0 0 0 0 0 0 0 0 0 0 0.25 0"/>
<feBlend mode="normal" in2="BackgroundImageFix" result="effect1_dropShadow_1504_1249"/>
<feBlend mode="normal" in="SourceGraphic" in2="effect1_dropShadow_1504_1249" result="shape"/>
</filter>
<radialGradient id="paint0_diamond_1504_1249" cx="0" cy="0" r="1" gradientUnits="userSpaceOnUse" gradientTransform="translate(113 77) rotate(39.447) scale(153.455 248.897)">
<stop offset="0.244" stop-color="#9E7665"/>
<stop offset="1" stop-color="#6A4738"/>
</radialGradient>
<linearGradient id="paint1_linear_1504_1249" x1="247" y1="168" x2="247" y2="274" gradientUnits="userSpaceOnUse">
<stop stop-color="#9E7665"/>
<stop offset="1" stop-color="#6A4738"/>
</linearGradient>
</defs>
</svg>
