<svg width="43" height="43" viewBox="0 0 43 43" fill="none" xmlns="http://www.w3.org/2000/svg">
<circle cx="21.5" cy="21.5" r="21.5" fill="url(#paint0_linear_1310_1614)"/>
<path d="M11.3152 13.2123C11.2008 13.2744 11.0914 13.3743 10.9695 13.3946C9.62176 13.6173 8.29762 13.9129 7.06674 14.5972C4.37992 16.0928 2.01015 20.5727 3.83286 24.649C5.01277 27.2891 7.62872 28.4513 10.1713 27.4579C11.207 27.0529 11.9803 26.2768 12.4466 25.2483C13.1814 23.6299 13.8242 21.9602 14.4396 20.2838C14.9941 18.7694 15.5623 17.2752 16.3519 15.8781C17.4858 13.871 19.1257 12.9775 21.2617 13.0004C24.0182 13.0288 26.2276 14.6094 27.2981 17.3656C27.3329 17.4547 27.3789 17.5397 27.4609 17.7138C27.5604 17.5424 27.625 17.4277 27.6922 17.313C28.141 16.5422 28.5426 15.731 29.0486 15.0075C30.0968 13.5079 31.58 13.0126 33.2536 13.0018C36.7709 12.9775 39.5075 15.6568 39.9091 19.4618C40.1689 21.9319 39.8767 24.298 38.9703 26.5724C38.5961 27.5132 38.064 28.346 37.3043 28.9791C35.8931 30.1534 34.3738 30.2465 32.76 29.5244C31.8872 29.1343 31.0019 28.7698 30.1042 28.454C29.7586 28.3325 29.3632 28.3771 28.9902 28.346C28.9803 28.3028 28.9716 28.2596 28.9616 28.2151C29.0909 28.1813 29.224 28.1044 29.3483 28.1192C30.3964 28.2502 31.447 28.3676 32.4889 28.5444C35.6768 29.0843 38.8013 26.7911 39.551 23.3532C39.9377 21.5809 39.9973 19.8343 39.2712 18.139C38.4258 16.1683 36.654 15.1182 34.6461 15.237C32.9216 15.3396 31.6248 16.0955 30.8154 17.7692C30.609 18.1957 30.3964 18.6209 30.2335 19.0663C29.4875 21.1004 28.7938 23.1575 28.0067 25.1713C27.676 26.019 27.2123 26.8208 26.7236 27.578C25.6917 29.1802 24.2096 29.8996 22.4404 29.9765C19.5547 30.1021 17.4907 28.6821 16.1007 25.9974C16.0336 25.8678 15.9702 25.7355 15.903 25.606C15.8968 25.5925 15.8782 25.5871 15.811 25.5358C15.6792 25.7855 15.5449 26.0298 15.4194 26.2795C14.5801 27.933 13.5022 29.3003 11.723 29.7633C8.48289 30.6055 5.55983 29.168 3.99698 25.965C3.04584 24.0159 2.83696 21.9292 3.11174 19.7709C3.43251 17.2455 4.39236 14.7362 5.16819 13.0382C7.17367 13.6173 9.20028 13.5012 11.2269 13.0409L11.3152 13.2123ZM22.8967 15.233C20.8987 15.1641 19.3905 16.0428 18.5886 18.0486C17.7133 20.2393 16.9337 22.4758 16.1318 24.7016C16.0783 24.8501 16.1405 25.0958 16.225 25.2456C17.8712 28.1462 20.8912 28.2272 22.7425 27.2365C23.8764 26.6291 24.5478 25.5371 25.0278 24.3426C25.7924 22.4421 26.4675 20.4998 27.1538 18.5642C27.2222 18.3712 27.1613 18.0661 27.0631 17.8704C26.1654 16.0847 24.7381 15.2573 22.8967 15.233Z" fill="#6A4738" fill-opacity="0.5"/>
<defs>
<linearGradient id="paint0_linear_1310_1614" x1="21.5" y1="0" x2="21.5" y2="43" gradientUnits="userSpaceOnUse">
<stop stop-color="#9E7665"/>
<stop offset="1" stop-color="#6A4738"/>
</linearGradient>
</defs>
</svg>
