<svg width="47" height="27" viewBox="0 0 47 27" fill="none" xmlns="http://www.w3.org/2000/svg">
<path fill-rule="evenodd" clip-rule="evenodd" d="M15.1984 3.09108C18.2201 2.40629 19.828 3.3693 18.507 4.91573C16.8344 6.89244 12.4011 7.04449 10.0167 6.41039C9.6533 6.30902 9.26831 6.18177 8.86068 6.02972C10.8072 4.61378 12.8357 3.61087 15.1984 3.09M16.3879 13.0048C16.4116 13.3089 16.0655 13.8158 15.2847 14.3474C14.5816 14.8295 13.5539 15.1843 13.1559 14.9049C13.3209 14.6774 13.4935 14.424 13.6725 14.246C15.0906 12.7762 16.3372 12.4969 16.3868 13.0037L16.3879 13.0048ZM20.8395 12.4214C21.643 11.5339 22.4852 10.6215 23.3662 9.68441C25.5025 7.4036 28.1371 5.27484 28.7884 5.80649C29.1465 6.1106 27.9645 7.60634 26.1313 8.94894C22.9435 11.2804 22.4377 11.4325 20.8406 12.4214H20.8395ZM32.7483 11.1802L32.9413 11.054C33.322 10.724 33.4601 10.2937 33.2983 10.0403L33.2088 9.93892C32.9618 9.76206 32.3968 9.81275 31.9719 10.091C31.933 10.1169 31.8392 10.2182 31.8015 10.243C31.4208 10.573 31.2741 11.0292 31.4359 11.2826L31.5254 11.384C31.7724 11.5619 32.3234 11.4605 32.7472 11.1812L32.7483 11.1802ZM42.483 15.8033C42.7688 16.4977 42.3299 17.3863 41.5103 17.7185C40.8115 17.9967 39.731 17.946 39.8194 17.3885C39.9003 16.6606 41.9535 15.9424 42.483 15.8033ZM5.84116 1.79915C6.14635 1.36672 6.82035 0.960159 7.35955 0.92565C8.13168 0.865259 8.62559 0.964473 9.27047 1.3775C9.79889 1.7269 10.0437 2.07954 10.35 1.73553C10.7457 1.26966 10.5602 0.595659 9.75144 0.30557C9.01597 0.0553811 8.36785 0.0683226 7.61513 0.235475C7.18916 0.334687 6.51085 0.634483 6.14419 0.860947C4.24621 2.0267 4.70237 4.10477 6.76319 5.54983C4.95364 6.81695 3.41368 8.28681 2.48734 9.55393C-1.32157 14.851 -0.568849 19.032 4.94285 18.6524C7.00691 18.5144 8.94048 17.5524 10.6012 16.3457C10.31 17.2688 10.5106 17.9396 11.2256 18.2512C12.9306 18.9727 14.821 17.533 16.114 16.3177C15.4573 17.7595 15.8972 18.3968 16.8354 18.606C18.1026 18.8832 19.8636 17.5265 21.2903 16.1516C21.0423 16.9981 21.1383 17.9018 22.0258 18.2771C23.2099 18.7581 24.4317 18.2771 25.6999 17.3648C26.0407 17.12 26.4397 16.7868 26.8398 16.4287C26.6715 16.7145 26.5648 16.9668 26.5572 17.162C26.5162 18.3278 27.6335 18.7333 29.0774 17.8457C29.5854 17.5395 30.2011 17.0143 30.8018 16.4503C30.6271 16.7415 30.4945 17.0132 30.4308 17.2375C30.0825 18.5046 31.1782 18.8853 32.551 18.4033C33.2034 18.1757 34.1405 17.4403 35.0723 16.6293C34.9687 16.8579 34.8641 17.0855 34.8598 17.2882C34.78 18.4788 36.2995 18.9608 37.6842 17.973C39.3007 16.831 42.7451 13.2388 42.6804 13.3348C42.3558 13.8222 42.0107 14.6914 42.3137 15.456C41.4672 15.7019 39.4128 16.5754 39.1173 17.491C38.8887 18.2005 39.2899 18.6567 40.1461 18.8346C41.5718 19.115 43.7243 18.3127 44.202 16.8331C44.3195 16.4126 44.2376 15.9381 44.1384 15.5984C44.8609 15.6361 45.2912 15.8712 45.6384 16.5549C45.8174 16.9205 45.8369 17.1976 46.1216 17.1049C46.4958 16.9733 46.6155 16.5376 46.2607 16.1138C45.9339 15.7353 45.5683 15.5326 45.0938 15.3816C44.7843 15.2867 44.3519 15.2533 44.0079 15.236C43.7696 14.6213 43.5269 14.0314 44.023 13.2345C44.7013 12.1701 45.6805 11.5878 45.7495 11.5619C45.9954 11.4605 46.2046 11.2837 46.2067 11.1812C46.2175 11.0551 46.073 11.0292 45.9522 11.0292C45.8908 11.0292 45.8218 11.0551 45.7614 11.0551C45.6309 11.0799 44.5967 11.3592 44.0176 11.7398C42.1045 12.9681 40.0178 15.6695 38.0346 17.2645C37.0123 18.0754 35.8271 18.633 36.5756 17.1631C36.7675 16.7576 37.8966 15.2371 39.4042 13.8686C39.9553 13.3866 40.3014 12.8797 39.8744 12.6015C39.2521 12.1712 38.604 12.5767 38.122 13.0328C37.2905 13.8179 36.5658 14.5534 36.018 15.2123C33.8796 17.2149 32.648 18.2027 32.0128 18C31.4305 17.8231 32.689 15.9984 34.0801 14.7054C35.3774 13.5138 35.9641 12.8301 35.3537 12.5508C34.5848 12.196 34.0036 12.677 32.5229 14.2493C32.3978 14.3787 32.2609 14.5286 32.1196 14.6903C31.3453 15.4452 30.0534 16.7123 29.2586 17.2904C28.1834 18.0754 27.3229 18.1013 28.1468 16.9604C28.4293 16.5549 29.3762 15.414 30.7306 14.0455C31.2288 13.5386 32.2091 12.5756 31.4122 12.5001C30.3187 12.3987 29.7353 12.9811 29.3061 13.4631C29.0127 13.7866 28.5393 14.2859 28.0681 14.8251C27.3876 15.4991 26.3092 16.4945 25.4023 17.1631C24.5201 17.822 23.624 18.0506 23.225 17.8727C22.0042 17.3152 23.2066 15.2878 24.4241 14.2482C25.3936 13.4114 26.7233 12.499 27.2269 12.829C27.5267 13.0318 26.884 13.5138 26.3512 13.8427C25.8962 14.1209 25.9264 14.5016 26.3275 14.5771C26.6456 14.6278 27.1687 14.4251 27.4739 14.0455C27.944 13.4372 27.9387 12.9811 27.7855 12.7029C27.5871 12.3729 27.3175 12.1712 26.9002 12.1453C25.3721 12.0688 22.9618 13.3111 21.7562 15.1616L21.7292 15.2037C20.1515 16.7673 17.902 18.7225 17.3865 17.9493C17.1439 17.5686 17.6421 16.4028 18.6224 15.0602C19.0073 14.5275 19.4775 13.9193 20.0469 13.2863C21.7637 12.3998 23.5161 11.3096 25.99 9.58628C28.3398 7.96437 29.7504 6.13971 29.3233 5.48081C28.9178 4.84671 27.2226 4.44123 23.5992 7.55889C20.9841 9.8149 18.7496 12.3998 17.1557 14.6041C16.9638 14.8704 16.7955 15.1196 16.6478 15.3546C15.6891 16.2778 13.6401 18.207 12.4065 18C11.5416 17.8479 12.0916 16.4287 12.8928 15.263C13.2401 15.415 14.023 15.4409 15.3559 14.7054C16.3577 14.1479 17.0317 13.2863 16.9821 12.7794C16.9325 12.2726 15.9878 11.9933 15 12.2219C13.4158 12.6026 11.9665 13.7931 11.1512 15.1875C11.0283 15.3924 10.9215 15.5887 10.832 15.7774C9.04832 17.1599 7.1374 18.1132 5.02373 18.2253C0.00162479 18.5036 2.43449 12.7514 4.81992 9.88715C5.92312 8.54347 7.11259 7.4036 8.3754 6.41471C8.73019 6.54196 9.09362 6.64225 9.48723 6.7447C12.9467 7.63114 17.3121 7.12537 19.0947 4.99553C20.0954 3.7791 19.8205 1.80239 15.2437 2.20787C12.5251 2.40953 9.5584 3.70145 7.31533 5.17347C5.94361 4.23526 4.9655 3.01882 5.84547 1.80239L5.84116 1.79915Z" fill="black"/>
<path d="M40.7436 19.0001C40.529 19.0001 40.3198 18.9817 40.1235 18.9429C39.5951 18.834 39.2381 18.6248 39.0613 18.3228C38.92 18.0802 38.9028 17.7879 39.0095 17.4558C39.305 16.5392 41.2224 15.6807 42.1681 15.382C42.0139 14.8935 42.0873 14.3662 42.2609 13.9068C41.2515 14.9226 38.9793 17.1916 37.7478 18.0629C36.9401 18.6377 35.9997 18.779 35.3537 18.4188C34.9353 18.1848 34.7142 17.7707 34.7477 17.2789C34.7498 17.1927 34.7671 17.1042 34.7951 17.0136C33.803 17.8526 33.0956 18.3315 32.5876 18.5083C31.7087 18.8157 30.9442 18.7801 30.5462 18.408C30.3457 18.2204 30.144 17.8602 30.323 17.2067C30.3446 17.1301 30.3748 17.046 30.4125 16.9576C29.9067 17.4062 29.4862 17.7297 29.1346 17.9411C28.2924 18.4598 27.5073 18.5806 26.981 18.2732C26.6176 18.0619 26.4267 17.665 26.4451 17.1549C26.4483 17.0697 26.4677 16.9748 26.5033 16.8691C26.2262 17.1042 25.9781 17.3005 25.7646 17.4536C24.2743 18.5266 23.0729 18.8221 21.9837 18.38C21.2634 18.0748 20.9463 17.3825 21.0962 16.4885C19.2716 18.1891 17.8319 18.9354 16.8107 18.7143C16.3114 18.6032 15.9738 18.3778 15.8077 18.0446C15.6395 17.7071 15.646 17.2735 15.8282 16.7279C13.9809 18.3616 12.4582 18.8944 11.1803 18.353C10.5053 18.0575 10.2389 17.4482 10.4125 16.6157C8.54472 17.9238 6.70821 18.6453 4.94826 18.7639C2.6944 18.9127 1.12641 18.3261 0.414663 17.0492C-0.544034 15.327 0.177415 12.5706 2.39461 9.48857C3.34036 8.19449 4.85552 6.76561 6.56801 5.54918C5.4303 4.71126 4.79836 3.67923 4.82748 2.69789C4.8512 1.9236 5.28472 1.25499 6.08273 0.765398C6.44292 0.542169 7.1331 0.231589 7.58602 0.125906C8.42718 -0.0617356 9.08392 -0.0412462 9.7838 0.198159C10.2303 0.35884 10.5376 0.648931 10.6303 0.995098C10.7048 1.2744 10.6325 1.56988 10.433 1.80605C10.1267 2.15114 9.84635 1.94085 9.52067 1.69498C9.42793 1.62488 9.3244 1.54724 9.20686 1.46959C8.60511 1.0846 8.13816 0.974607 7.36603 1.03608C6.88183 1.06627 6.22508 1.44479 5.93068 1.86213C5.66863 2.22555 5.56942 2.60838 5.63735 2.99876C5.75059 3.64688 6.32861 4.35 7.31103 5.0337C9.90566 3.34385 12.7882 2.273 15.2297 2.09183C18.1619 1.83086 19.1842 2.54152 19.5218 3.18209C19.8151 3.73855 19.6857 4.44166 19.1756 5.06282C17.2593 7.35011 12.7375 7.6898 9.45381 6.84865C9.11304 6.76022 8.74962 6.66209 8.39051 6.53699C7.08996 7.5604 5.94793 8.6787 4.90081 9.95337C3.33281 11.8352 1.52865 15.2839 2.42157 17.0622C2.80871 17.8311 3.67898 18.1902 5.0108 18.1093C6.89585 18.009 8.76903 17.2218 10.736 15.7002C10.8223 15.5201 10.9247 15.3313 11.0488 15.1254C11.919 13.6372 13.4212 12.4811 14.9677 12.1091C15.6708 11.9462 16.4041 12.0282 16.7988 12.3118C16.9703 12.4348 17.0705 12.5922 17.0878 12.7648C17.145 13.3482 16.4063 14.2422 15.4044 14.7997C14.0144 15.5654 13.2519 15.4985 12.9295 15.395C12.2771 16.3645 11.9514 17.2703 12.1164 17.665C12.1671 17.7879 12.2663 17.8591 12.4183 17.8861C13.6326 18.0899 15.7614 16.042 16.5626 15.271C16.6953 15.0531 16.8678 14.7986 17.0576 14.5355C18.9049 11.9797 21.1997 9.47132 23.5194 7.47089C26.3459 5.04017 27.9052 4.84283 28.5792 4.94312C28.9556 4.99919 29.2511 5.16635 29.4118 5.41761C29.897 6.1671 28.4196 8.03813 26.0472 9.67622C23.5992 11.3822 21.822 12.4887 20.1106 13.374C19.6339 13.9046 19.1745 14.4773 18.7065 15.1232C17.6561 16.5618 17.2916 17.6025 17.4739 17.8861C17.5213 17.9583 17.5893 17.9961 17.6874 18.0058C18.2913 18.0672 19.732 17.0136 21.644 15.1211L21.6559 15.0984C22.8756 13.2263 25.2373 12.0282 26.7621 12.0282C26.8085 12.0282 26.8538 12.0282 26.8991 12.0314C27.324 12.0573 27.6432 12.2579 27.875 12.644C28.0034 12.8758 28.1295 13.3708 27.5569 14.1128C27.2107 14.543 26.65 14.7447 26.3038 14.6865C26.0849 14.6444 25.9372 14.5193 25.907 14.35C25.8681 14.1408 26.0105 13.9143 26.2876 13.745C26.9476 13.3374 27.1838 13.0667 27.1859 12.9589C27.1859 12.9502 27.1859 12.9384 27.159 12.919C26.8107 12.6903 25.7376 13.2565 24.4921 14.3306C23.6067 15.0865 22.7203 16.3968 22.8324 17.1981C22.8691 17.4655 23.0115 17.651 23.267 17.7675C23.6089 17.9184 24.45 17.7275 25.3311 17.0686C26.2024 16.427 27.2733 15.4467 27.985 14.7425C28.3021 14.3791 28.6288 14.0243 28.892 13.7407C29.0149 13.607 29.126 13.4873 29.2187 13.3848C29.6975 12.8478 30.2982 12.2806 31.4187 12.3852C31.6257 12.4046 31.7551 12.4822 31.8026 12.6149C31.9244 12.9492 31.4478 13.4711 30.86 14.0675L30.8072 14.1214C29.4495 15.4931 28.5091 16.6287 28.2341 17.0212C27.9085 17.4709 27.902 17.6682 27.9441 17.7103C28.0249 17.7912 28.4714 17.72 29.1885 17.197C29.9531 16.6405 31.2138 15.4101 31.9665 14.6757L32.0366 14.6067C32.1735 14.4492 32.3116 14.2993 32.4377 14.1678C33.9087 12.6073 34.5449 12.0552 35.3969 12.4455C35.5737 12.5264 35.6751 12.644 35.6988 12.7939C35.7646 13.2123 35.206 13.8162 34.1524 14.7835C32.8421 16.001 31.8932 17.4407 31.9805 17.8214C31.9891 17.8591 32.0064 17.8774 32.042 17.8882C32.6308 18.0726 33.9173 17.018 35.9372 15.1254C36.4321 14.5279 37.1234 13.8119 38.04 12.9459C38.7496 12.2752 39.387 12.1274 39.9337 12.5049C40.0804 12.6008 40.1613 12.7281 40.172 12.8823C40.1925 13.167 39.9574 13.5261 39.4732 13.9488C37.9203 15.3594 36.8409 16.8508 36.6726 17.2067C36.3523 17.8354 36.4677 17.9389 36.4731 17.9432C36.5777 18.0252 37.1191 17.8386 37.9602 17.1722C38.8186 16.482 39.7137 15.5654 40.5797 14.6789C41.7023 13.5293 42.8626 12.3409 43.9529 11.6411C44.559 11.2421 45.6147 10.9638 45.7355 10.9412C45.7797 10.939 45.8056 10.9336 45.8304 10.9282C46.0267 10.8905 46.1809 10.9282 46.2574 11.0124C46.3006 11.0587 46.32 11.1191 46.3146 11.1871C46.3103 11.3758 45.9975 11.5753 45.7883 11.6616C45.6773 11.7101 44.7455 12.2978 44.1125 13.291C43.6639 14.0114 43.8515 14.5312 44.0812 15.1254C44.4155 15.1437 44.8178 15.1793 45.1208 15.272C45.66 15.4424 46.0234 15.6721 46.3405 16.0377C46.5465 16.2847 46.6241 16.551 46.5583 16.7904C46.5044 16.9845 46.3577 17.1366 46.1539 17.2078C45.8347 17.3091 45.7312 17.0665 45.633 16.8271C45.605 16.7591 45.5727 16.6815 45.5338 16.6017C45.2459 16.0334 44.8976 15.7832 44.2829 15.7196C44.3627 16.0474 44.4145 16.4701 44.3055 16.8605C43.8806 18.1783 42.1649 19.0001 40.7403 19.0001H40.7436ZM42.6901 13.2134C42.7117 13.2134 42.7278 13.2274 42.7516 13.2457L42.8303 13.3104L42.7731 13.3967C42.4227 13.923 42.1455 14.7296 42.4173 15.4155L42.4626 15.5298L42.3439 15.5643C41.3863 15.8425 39.4883 16.7031 39.223 17.5248C39.1357 17.7944 39.1465 18.0241 39.2554 18.2107C39.3967 18.4522 39.7116 18.6302 40.1677 18.724C41.575 19.0001 43.6402 18.2031 44.0931 16.7969C44.2052 16.3957 44.12 15.9396 44.0284 15.6279L43.9842 15.4769L44.1416 15.4845C44.9386 15.5265 45.3861 15.8123 45.7366 16.5025C45.7786 16.5888 45.8131 16.6696 45.8423 16.7419C45.9566 17.0169 45.9771 17.0331 46.0849 16.9953C46.2175 16.9489 46.3103 16.8551 46.3448 16.7311C46.3901 16.5672 46.3265 16.3677 46.1733 16.1833C45.8876 15.8511 45.5532 15.6419 45.0583 15.4856C44.7542 15.3928 44.3088 15.3615 44.0004 15.3454L43.9281 15.3421L43.8893 15.2418C43.6531 14.6325 43.4083 14.0028 43.9259 13.1724C44.6172 12.0875 45.618 11.4879 45.7085 11.4545C45.9339 11.3618 46.0817 11.2194 46.0935 11.172C46.0946 11.1655 46.0676 11.1396 45.9501 11.1396C45.9264 11.1396 45.9016 11.145 45.8757 11.1504C45.8358 11.1579 45.797 11.1655 45.7592 11.1655C45.6816 11.1827 44.6506 11.4545 44.078 11.8309C43.0082 12.5178 41.8565 13.6976 40.7425 14.8374C39.8722 15.7282 38.9729 16.6502 38.1026 17.349C37.6885 17.6769 36.6899 18.4069 36.334 18.1179C36.1539 17.9713 36.1981 17.6499 36.4742 17.1085C36.6856 16.661 37.8524 15.1211 39.3266 13.7817C39.7439 13.4172 39.965 13.1045 39.9499 12.8985C39.9445 12.8165 39.8992 12.7486 39.8108 12.6914C39.3546 12.3776 38.8273 12.5135 38.1964 13.1098C37.2852 13.9693 36.6004 14.6789 36.1021 15.2796C33.9141 17.3318 32.6782 18.3347 31.9773 18.1028C31.8673 18.0683 31.7907 17.9874 31.7648 17.8731C31.6322 17.294 32.8152 15.7239 34.0025 14.6196C34.8005 13.8863 35.5317 13.1627 35.4799 12.8305C35.4724 12.7842 35.4465 12.7141 35.3063 12.6504C34.6226 12.3366 34.0888 12.7464 32.6027 14.3241C32.4776 14.4535 32.3428 14.6013 32.2027 14.762L32.1261 14.8374C31.3194 15.6247 30.1009 16.8131 29.3233 17.3781C28.7841 17.7728 28.0584 18.1395 27.7888 17.8699C27.6184 17.7006 27.7079 17.3717 28.0541 16.8929C28.3312 16.4949 29.2834 15.3464 30.6498 13.965L30.7026 13.9111C30.9948 13.6145 31.6786 12.9211 31.5944 12.6925C31.574 12.6343 31.4629 12.6159 31.3992 12.6095C30.3834 12.5146 29.8507 13.016 29.387 13.5358C29.2931 13.6393 29.1821 13.7601 29.058 13.8938C28.796 14.1775 28.4703 14.5301 28.15 14.8978C27.4275 15.6139 26.3469 16.6028 25.4659 17.252C24.6183 17.8839 23.6542 18.1848 23.1764 17.9745C22.854 17.8278 22.6599 17.5712 22.6124 17.2326C22.4884 16.345 23.3975 14.9744 24.3487 14.1634C25.0119 13.5919 26.6306 12.3064 27.2852 12.7356C27.393 12.8079 27.4135 12.9006 27.4124 12.9653C27.4102 13.0538 27.4049 13.3212 26.4073 13.9381C26.1776 14.0782 26.114 14.2271 26.1302 14.3112C26.1442 14.3867 26.2229 14.4438 26.3459 14.4665C26.6187 14.5074 27.1029 14.3241 27.3844 13.9747C27.8783 13.3352 27.7845 12.9373 27.6852 12.7561C27.4911 12.4326 27.2453 12.2773 26.8905 12.2557C26.8484 12.2536 26.8042 12.2525 26.76 12.2525C25.2977 12.2525 23.0255 13.4118 21.8468 15.2213L21.8198 15.2623C20.4352 16.6394 18.6342 18.2344 17.737 18.2344C17.7133 18.2344 17.6906 18.2322 17.668 18.2312C17.503 18.215 17.3768 18.1406 17.2895 18.0101C16.9573 17.4903 17.7499 16.0603 18.5285 14.9927C19.0063 14.3327 19.4743 13.7504 19.9607 13.2101L19.993 13.1853C21.7001 12.3032 23.4741 11.1989 25.9231 9.49289C28.3107 7.84401 29.5811 6.08622 29.2263 5.53947C29.154 5.42624 28.9707 5.22782 28.5501 5.16635C27.9095 5.06713 26.4267 5.2688 23.6693 7.64127C21.3626 9.63092 19.0807 12.1263 17.2431 14.6681C17.0565 14.928 16.8872 15.1782 16.7395 15.4122C15.3192 16.7829 13.5528 18.311 12.3849 18.1082C12.1574 18.0683 11.9945 17.9454 11.9136 17.7524C11.6699 17.1711 12.2102 16.0506 12.7979 15.1965L12.8508 15.12L12.936 15.1577C13.1139 15.2354 13.8105 15.4252 15.2998 14.6045C16.2909 14.0534 16.9109 13.2198 16.8689 12.7874C16.8581 12.6796 16.7923 12.5803 16.6726 12.4952C16.3275 12.246 15.6632 12.1813 15.0237 12.328C13.5356 12.686 12.0883 13.8011 11.2461 15.2408C11.1199 15.451 11.0175 15.6408 10.9312 15.822L10.8989 15.8619C8.88657 17.4224 6.96594 18.2301 5.02806 18.3336C3.59379 18.4069 2.65558 18.0198 2.22638 17.1635C1.28709 15.2958 3.12684 11.7403 4.73258 9.81209C5.80343 8.50831 6.97133 7.36736 8.30532 6.32347L8.35384 6.28573L8.41208 6.30622C8.78089 6.43778 9.15941 6.54131 9.5142 6.63189C12.7753 7.46765 17.2183 7.0557 19.0074 4.92047C19.4581 4.37157 19.5789 3.76119 19.3276 3.2867C19.0764 2.81112 18.2137 2.05301 15.2513 2.31506C12.8605 2.49192 9.91645 3.59404 7.37358 5.26233L7.31103 5.3033L7.24956 5.26125C6.16254 4.51931 5.54785 3.7709 5.41952 3.03759C5.34079 2.58574 5.45187 2.14683 5.75167 1.73272C6.08489 1.26038 6.8031 0.847357 7.35309 0.812848C8.17052 0.748144 8.68923 0.87108 9.33087 1.28195C9.45381 1.36283 9.56057 1.44371 9.65763 1.51704C10.02 1.78988 10.1116 1.83301 10.2669 1.66047C10.419 1.48038 10.474 1.2647 10.4168 1.05441C10.3435 0.779416 10.0868 0.545403 9.71263 0.410604C9.05696 0.188453 8.43688 0.167963 7.63886 0.344821C7.21397 0.444034 6.54105 0.747066 6.20244 0.956275C5.47236 1.40489 5.07551 2.00879 5.05394 2.70436C5.0259 3.64473 5.67186 4.64764 6.82683 5.45752L6.95731 5.54918L6.82683 5.64084C5.08198 6.86267 3.53232 8.31312 2.57793 9.61906C0.413586 12.6278 -0.302472 15.2968 0.612011 16.9403C1.27846 18.1363 2.77744 18.6884 4.93424 18.5396C6.72977 18.4199 8.61374 17.6499 10.5344 16.2534L10.8094 16.0539L10.7069 16.3785C10.4265 17.2671 10.6152 17.8623 11.2688 18.147C12.538 18.6798 14.0963 18.0565 16.0353 16.234L16.4494 15.8447L16.2132 16.3623C15.8983 17.0536 15.8282 17.5863 16.0062 17.9443C16.142 18.2171 16.4203 18.3972 16.857 18.4954C17.847 18.7111 19.3136 17.8969 21.2094 16.07L21.5136 15.7767L21.3949 16.1822C21.2601 16.6384 21.0585 17.7459 22.0668 18.1729C23.0751 18.5849 24.2096 18.2959 25.632 17.2725C25.9404 17.0514 26.32 16.7397 26.7632 16.344L27.3024 15.8619L26.9347 16.4842C26.7643 16.7732 26.6748 17.0029 26.6672 17.1646C26.6521 17.5863 26.8031 17.912 27.0921 18.0802C27.5375 18.3401 28.2579 18.2161 29.016 17.7491C29.456 17.4838 30.0146 17.0309 30.722 16.3677L31.3043 15.8209L30.8946 16.5068C30.7134 16.8088 30.5926 17.0643 30.5355 17.2671C30.4168 17.6974 30.4729 18.036 30.6961 18.2441C31.0272 18.5525 31.7238 18.5719 32.5111 18.2969C33.2174 18.0511 34.2678 17.1786 34.9957 16.5435L35.3861 16.2038L35.1715 16.675C35.0734 16.8896 34.9731 17.1107 34.9688 17.2908C34.9407 17.7017 35.1165 18.0317 35.4616 18.2236C36.0331 18.545 36.8786 18.408 37.6162 17.8818C38.8941 16.9781 41.3281 14.529 42.2436 13.607C42.4151 13.4344 42.5176 13.3309 42.5844 13.2748C42.5844 13.2748 42.5844 13.2748 42.5844 13.2738C42.6351 13.2306 42.6642 13.2144 42.6879 13.2144L42.6901 13.2134ZM40.625 17.995C40.323 17.995 40.0448 17.9368 39.8755 17.8009C39.7396 17.692 39.6814 17.5431 39.7083 17.3717C39.8086 16.4626 42.428 15.7023 42.4539 15.6958L42.5488 15.671L42.5855 15.7616C42.7214 16.0938 42.7117 16.4766 42.5585 16.8422C42.3741 17.2811 42.0075 17.638 41.5502 17.8235C41.2795 17.9314 40.9377 17.995 40.6228 17.995H40.625ZM42.4129 15.9396C41.6311 16.1639 39.9941 16.8314 39.9305 17.4019C39.9154 17.4978 39.9423 17.5679 40.0157 17.6273C40.2626 17.8246 40.9549 17.8203 41.4683 17.6154C41.8694 17.4526 42.1919 17.1387 42.3536 16.7548C42.4701 16.4788 42.4895 16.1941 42.4129 15.9396ZM13.5496 15.1178C13.3706 15.1178 13.2131 15.0822 13.0923 14.997L12.9996 14.9323L13.1376 14.7404C13.2843 14.5366 13.4353 14.3263 13.5959 14.1678C14.7337 12.9891 15.7948 12.534 16.2564 12.6914C16.3998 12.741 16.4861 12.8489 16.5001 12.9945V12.9966C16.5303 13.3891 16.1 13.9283 15.3483 14.4406C14.8641 14.7727 14.1049 15.1178 13.5496 15.1178ZM13.3253 14.8633C13.7081 14.9819 14.5395 14.7231 15.2222 14.2562C15.976 13.7418 16.2952 13.263 16.2768 13.0149C16.2704 12.9589 16.2423 12.9244 16.1819 12.9028C15.8563 12.7939 14.8836 13.1541 13.7545 14.3252C13.6078 14.4697 13.4644 14.6692 13.3253 14.8633ZM20.2238 12.9351L20.7565 12.3474C21.5675 11.4513 22.4183 10.5303 23.2854 9.60936C25.0863 7.68657 28.0551 5.06174 28.8596 5.72172C28.9114 5.76594 28.9696 5.84466 28.9642 5.98485C28.9427 6.57797 27.7273 7.92058 26.197 9.04212C23.7825 10.8085 22.9219 11.3154 21.9255 11.902C21.6117 12.0875 21.2871 12.2784 20.8978 12.5189L20.2227 12.9362L20.2238 12.9351ZM28.5156 5.8328C27.7413 5.8328 25.5694 7.49677 23.4482 9.76141C22.7656 10.4872 22.0937 11.2129 21.4424 11.9258C21.5696 11.8503 21.6915 11.778 21.8123 11.7068C22.8033 11.1223 23.6596 10.6177 26.0655 8.85879C27.6453 7.70166 28.7237 6.43347 28.741 5.97515C28.7431 5.91476 28.7227 5.8975 28.7162 5.89211C28.6677 5.85221 28.5997 5.8328 28.5167 5.8328H28.5156ZM31.863 11.5828C31.7066 11.5828 31.5664 11.5494 31.4607 11.4739L31.3529 11.3553C31.1437 11.0296 31.3097 10.5206 31.7292 10.1572C31.7573 10.1367 31.7842 10.1097 31.8112 10.0839C31.8489 10.0472 31.8878 10.0116 31.9104 9.9965C32.3644 9.69886 32.9759 9.632 33.2746 9.8466L33.3824 9.96523C33.5906 10.2887 33.431 10.7762 33.0147 11.1374L32.8098 11.2733C32.5326 11.4556 32.1681 11.5828 31.863 11.5828ZM32.8217 9.94366C32.5898 9.94366 32.2878 10.0181 32.0344 10.1841C32.0193 10.1949 31.9934 10.2208 31.9665 10.2467C31.9266 10.2844 31.8867 10.3211 31.864 10.3362C31.5114 10.6425 31.4133 11.0372 31.5319 11.2216L31.6106 11.3089C31.7939 11.4362 32.2965 11.3434 32.6869 11.0868L32.8799 10.9606C33.1894 10.691 33.3371 10.3092 33.2034 10.1011L33.1247 10.0127C33.06 9.96738 32.9521 9.94366 32.8206 9.94366H32.8217ZM12.8767 6.85728C11.808 6.85728 10.7889 6.73326 9.98762 6.52082C9.6242 6.41945 9.23274 6.29004 8.82187 6.13691L8.62668 6.06358L8.79491 5.94064C10.8816 4.42225 12.909 3.48189 15.1747 2.98259C17.0727 2.55338 18.5221 2.73671 18.961 3.46248C19.2112 3.87658 19.0807 4.41902 18.5943 4.98949C17.4534 6.33749 15.0636 6.85728 12.8777 6.85728H12.8767ZM9.09794 5.99887C9.43116 6.11857 9.74929 6.22102 10.0469 6.30406C12.4291 6.93708 16.7815 6.78179 18.4218 4.84499C18.7183 4.49666 19.0192 3.99521 18.768 3.57894C18.4563 3.06131 17.2388 2.74426 15.2232 3.2015C13.0514 3.68031 11.1005 4.57107 9.09902 5.99887H9.09794Z" fill="black"/>
<path d="M15.0939 23.124H15.3829L15.9987 25.4803L16.5303 23.124H16.9692L16.2348 26.1295H15.8046L15.2503 24.0288L14.6712 26.1295H14.2409L13.5076 23.124H13.9465L14.477 25.4803L15.0928 23.124H15.0939Z" fill="black"/>
<path d="M18.9815 26.0227C18.8219 25.931 18.6979 25.8016 18.6106 25.6345C18.5232 25.4673 18.479 25.2732 18.479 25.0521V24.2002C18.479 23.9802 18.5232 23.7861 18.6106 23.6189C18.6979 23.4507 18.8219 23.3224 18.9815 23.2307C19.1411 23.139 19.3255 23.0938 19.5358 23.0938C19.7461 23.0938 19.9295 23.139 20.0901 23.2307C20.2497 23.3224 20.3738 23.4518 20.4611 23.6189C20.5485 23.7861 20.5927 23.9802 20.5927 24.2002V25.0521C20.5927 25.2732 20.5485 25.4673 20.4611 25.6345C20.3738 25.8016 20.2497 25.931 20.0901 26.0227C19.9305 26.1143 19.745 26.1596 19.5358 26.1596C19.3266 26.1596 19.1422 26.1143 18.9815 26.0227ZM19.8626 25.6614C19.9564 25.6053 20.0297 25.5266 20.0815 25.4242C20.1333 25.3217 20.1592 25.2031 20.1592 25.0683V24.1872C20.1592 24.0524 20.1333 23.9327 20.0815 23.8303C20.0297 23.7279 19.9564 23.6491 19.8626 23.593C19.7688 23.537 19.6588 23.5089 19.5348 23.5089C19.4107 23.5089 19.3018 23.537 19.2069 23.593C19.1131 23.6491 19.0398 23.7279 18.988 23.8303C18.9362 23.9327 18.9104 24.0524 18.9104 24.1872V25.0683C18.9104 25.2031 18.9362 25.3217 18.988 25.4242C19.0398 25.5266 19.1131 25.6064 19.2069 25.6614C19.3007 25.7175 19.4107 25.7455 19.5348 25.7455C19.6588 25.7455 19.7677 25.7175 19.8626 25.6614Z" fill="black"/>
<path d="M24.572 23.124H24.9667V26.1295H24.5547V23.8778L24.5752 24.0105L23.8355 25.7122H23.5421L22.8023 24.0525L22.8228 23.8789V26.1306H22.4109V23.1251H22.8056L23.6877 25.1094L24.5709 23.1251L24.572 23.124Z" fill="black"/>
<path d="M27.6669 23.124H28.0271L29.1357 26.1295H28.6806L27.847 23.7042L27.0134 26.1295H26.5583L27.6669 23.124ZM27.0695 25.0684H28.6515V25.4695H27.0695V25.0684Z" fill="black"/>
<path d="M30.7264 23.124H31.1093L32.5791 25.448L32.5295 25.5019V23.124H32.9469V26.1284H32.5608L31.0953 23.8401L31.1449 23.7862V26.1284H30.7275V23.124H30.7264Z" fill="black"/>
</svg>
