<svg width="79" height="12" viewBox="0 0 79 12" fill="none" xmlns="http://www.w3.org/2000/svg">
<path d="M78.0233 0.241562H78.1775V0H76.8511V0.241562H77.0053C77.0366 0.241562 77.0614 0.266366 77.0614 0.297639V6.48981C77.0614 6.52108 77.0366 6.54589 77.0053 6.54589H76.8511V6.78745H77.8626H78.1775V6.54589H78.0233C77.992 6.54589 77.9672 6.52108 77.9672 6.48981V0.297639C77.9672 0.266366 77.992 0.241562 78.0233 0.241562Z" fill="#231F20"/>
<path d="M55.6649 0.241562H55.8191C55.8503 0.241562 55.8751 0.266366 55.8751 0.297639V6.48981C55.8751 6.52108 55.8503 6.54589 55.8191 6.54589H55.6649V6.78745H56.6764H56.9913V6.54589H56.8371C56.8058 6.54589 56.7821 6.52108 56.7821 6.48981V0.297639C56.7821 0.266366 56.8069 0.241562 56.8371 0.241562H56.9913V0H55.6649V0.241562Z" fill="#231F20"/>
<path d="M13.2557 0.241562H13.4099C13.4412 0.241562 13.466 0.266366 13.466 0.297639V6.48981C13.466 6.52108 13.4412 6.54589 13.4099 6.54589H13.2557V6.78745H14.2673H14.5822V6.54589H14.428C14.3967 6.54589 14.373 6.52108 14.373 6.48981V0.297639C14.373 0.266366 14.3978 0.241562 14.428 0.241562H14.5822V0H13.2557V0.241562Z" fill="#231F20"/>
<path d="M20.5974 2.82972C19.5093 2.37895 19.0984 1.98857 19.1308 1.43859C19.1901 0.544593 20.0129 0.448615 20.3634 0.448615C20.399 0.448615 20.4346 0.448615 20.4712 0.450772C21.499 0.497143 22.0888 1.01693 22.0888 1.87642V2.31101H22.38V0H22.0888V0.2297C22.0888 0.328912 22.0899 0.410871 22.0921 0.477732C22.0932 0.560769 22.0953 0.639492 22.091 0.676157C22.0511 0.670765 21.9638 0.621159 21.8796 0.57371C21.623 0.427047 21.1927 0.180094 20.481 0.150977C20.4572 0.150977 20.4346 0.149898 20.4098 0.149898C19.7013 0.149898 18.6283 0.555376 18.459 1.45584C18.2853 2.3714 18.749 2.95589 20.1143 3.53931C20.2566 3.60078 20.4012 3.65901 20.5446 3.71725C21.444 4.08067 22.2215 4.39556 22.1514 5.23132C22.0888 5.97649 21.5195 6.40462 20.5909 6.40462C20.5327 6.40462 20.4723 6.40246 20.4119 6.39923C19.2095 6.31942 18.267 5.66591 18.267 4.91103V4.47644H17.9758V6.78745H18.267V6.47256C18.267 6.26982 18.267 6.07786 18.2961 6.04551C18.3554 6.04551 18.4935 6.11453 18.6401 6.18786C19.0197 6.37874 19.656 6.69794 20.5381 6.69794C21.7146 6.69794 22.6431 6.0358 22.7963 5.08789C22.9947 3.87685 22.0899 3.4401 20.5963 2.82864L20.5974 2.82972Z" fill="#231F20"/>
<path d="M50.0432 2.82972C48.9551 2.37895 48.5442 1.98857 48.5765 1.43859C48.6358 0.544593 49.4587 0.448615 49.8091 0.448615C49.8447 0.448615 49.8803 0.448615 49.917 0.450772C50.9447 0.497143 51.5346 1.01693 51.5346 1.87642V2.31101H51.8258V0H51.5346V0.2297C51.5346 0.328912 51.5357 0.410871 51.5378 0.477732C51.5389 0.560769 51.5411 0.639492 51.5367 0.676157C51.4968 0.670765 51.4095 0.621159 51.3254 0.57371C51.0687 0.427047 50.6384 0.180094 49.9267 0.150977C49.903 0.150977 49.8803 0.149898 49.8555 0.149898C49.147 0.149898 48.074 0.555376 47.9047 1.45584C47.7311 2.3714 48.1948 2.95589 49.56 3.53931C49.7024 3.60078 49.8469 3.65901 49.9903 3.71725C50.8897 4.08067 51.6672 4.39556 51.5971 5.23132C51.5346 5.97649 50.9652 6.40462 50.0367 6.40462C49.9785 6.40462 49.9181 6.40246 49.8577 6.39923C48.6553 6.31942 47.7127 5.66591 47.7127 4.91103V4.47644H47.4216V6.78745H47.7127V6.47364C47.7127 6.26982 47.7127 6.07786 47.7429 6.04551C47.8022 6.04551 47.9403 6.11453 48.0869 6.18786C48.4665 6.37874 49.1028 6.69794 49.9849 6.69794C51.1615 6.69794 52.09 6.0358 52.2431 5.08789C52.4415 3.87685 51.5367 3.4401 50.0432 2.82864V2.82972Z" fill="#231F20"/>
<path d="M9.61393 6.50167L7.49164 0.241562H7.66742V0H6.34099V0.241562H6.47363L5.01456 6.1059L3.02599 0.241562H3.20177V0H1.87534V0.24264H2.00798C1.83651 0.933894 0.588806 5.97002 0.551062 6.0962C0.470182 6.36903 0.298717 6.54157 0.103526 6.54589L0.0140193 6.54912L0 6.6451V6.78961H1.32751V6.54805H1.22183C1.07409 6.54805 0.951148 6.49844 0.882131 6.41109C0.818505 6.33021 0.80233 6.22021 0.834682 6.08541L2.2118 0.549985L4.24458 6.54805H4.0688V6.78961H5.39523V6.54805H5.28955C5.24749 6.54805 5.20544 6.53295 5.19465 6.52001C5.1925 6.51677 5.19465 6.50491 5.19465 6.50275C5.24965 6.28168 6.67529 0.549985 6.67529 0.549985L8.70808 6.54805H8.5323V6.78961H9.85873V6.54805H9.67756C9.64736 6.54805 9.62148 6.52971 9.61178 6.50383L9.61393 6.50167Z" fill="#231F20"/>
<path d="M34.4603 0.241562H34.6145C34.6458 0.241562 34.6706 0.266366 34.6706 0.297639V6.48981C34.6706 6.52108 34.6458 6.54589 34.6145 6.54589H34.4603V6.78745H35.4719H35.7868V6.54589H35.6325C35.6013 6.54589 35.5765 6.52108 35.5765 6.48981V0.297639C35.5765 0.266366 35.6013 0.241562 35.6325 0.241562H35.7868V0H34.4603V0.241562Z" fill="#231F20"/>
<path d="M28.8386 2.82972C27.7505 2.37895 27.3397 1.98857 27.372 1.43859C27.4313 0.544593 28.2541 0.448615 28.6046 0.448615C28.6402 0.448615 28.6758 0.448615 28.7125 0.450772C29.7402 0.497143 30.3301 1.01693 30.3301 1.87642V2.31101H30.6212V0H30.3301V0.2297C30.3301 0.328912 30.3311 0.410871 30.3333 0.477732C30.3344 0.560769 30.3365 0.639492 30.3322 0.676157C30.2923 0.670765 30.205 0.621159 30.1208 0.57371C29.8642 0.427047 29.4339 0.180094 28.7222 0.150977C28.6984 0.150977 28.6758 0.149898 28.651 0.149898C27.9425 0.149898 26.8695 0.555376 26.7002 1.45584C26.5265 2.3714 26.9903 2.95589 28.3555 3.53931C28.4979 3.60078 28.6424 3.65901 28.7858 3.71725C29.6852 4.08067 30.4627 4.39556 30.3926 5.23132C30.3301 5.97649 29.7607 6.40462 28.8322 6.40462C28.7739 6.40462 28.7135 6.40246 28.6531 6.39923C27.4507 6.31942 26.5082 5.66591 26.5082 4.91103V4.47644H26.217V6.78745H26.5082V6.47256C26.5082 6.26982 26.5082 6.07786 26.5373 6.04551C26.5966 6.04551 26.7347 6.11453 26.8813 6.18786C27.2609 6.37874 27.8972 6.69794 28.7793 6.69794C29.9559 6.69794 30.8844 6.0358 31.0375 5.08789C31.2359 3.87685 30.3311 3.4401 28.8376 2.82864L28.8386 2.82972Z" fill="#231F20"/>
<path d="M41.802 2.82972C40.7139 2.37895 40.303 1.98857 40.3354 1.43859C40.3947 0.544593 41.2175 0.448615 41.568 0.448615C41.6036 0.448615 41.6392 0.448615 41.6758 0.450772C42.7036 0.497143 43.2934 1.01693 43.2934 1.87642V2.31101H43.5846V0H43.2934V0.2297C43.2934 0.328912 43.2945 0.410871 43.2967 0.477732C43.2977 0.560769 43.2999 0.639492 43.2956 0.676157C43.2557 0.670765 43.1683 0.621159 43.0842 0.57371C42.8276 0.427047 42.3973 0.180094 41.6855 0.150977C41.6618 0.150977 41.6392 0.149898 41.6144 0.149898C40.9059 0.149898 39.8328 0.555376 39.6635 1.45584C39.4899 2.3714 39.9536 2.95589 41.3189 3.53931C41.4612 3.60078 41.6057 3.65901 41.7492 3.71725C42.6486 4.08067 43.4261 4.39556 43.356 5.23132C43.2934 5.97649 42.724 6.40462 41.7955 6.40462C41.7373 6.40462 41.6769 6.40246 41.6165 6.39923C40.4141 6.31942 39.4716 5.66591 39.4716 4.91103V4.47644H39.1804V6.78745H39.4716V6.47256C39.4716 6.26982 39.4716 6.07786 39.5007 6.04551C39.56 6.04551 39.6981 6.11453 39.8447 6.18786C40.2243 6.37874 40.8606 6.69794 41.7427 6.69794C42.9192 6.69794 43.8477 6.0358 44.0009 5.08789C44.1993 3.87685 43.2945 3.4401 41.8009 2.82864L41.802 2.82972Z" fill="#231F20"/>
<path d="M62.4642 0H60.3861V0.241562H60.5403C60.5716 0.241562 60.5964 0.266366 60.5964 0.297639V6.48981C60.5964 6.52108 60.5716 6.54589 60.5403 6.54589H60.3861V6.78745H61.3976H61.7125V6.54589H61.5583C61.5271 6.54589 61.5022 6.52108 61.5022 6.48981V4.14429H62.4631C64.7439 4.14429 65.2227 3.01736 65.2227 2.07269C65.2227 1.12801 64.7439 0.00107945 62.4631 0.00107945L62.4642 0ZM62.3887 3.89518H61.5022V0.246954H62.3887C63.7238 0.271758 64.2198 0.765665 64.2198 2.07161C64.2198 3.37755 63.7238 3.87038 62.3876 3.89518H62.3887Z" fill="#231F20"/>
<path d="M70.6967 0H68.6186V0.241562H68.7728C68.8041 0.241562 68.8289 0.266366 68.8289 0.297639V6.48981C68.8289 6.52108 68.8041 6.54589 68.7728 6.54589H68.6186V6.78745H69.6301H69.945V6.54589H69.7908C69.7595 6.54589 69.7347 6.52108 69.7347 6.48981V4.14429H70.6956C72.9764 4.14429 73.4552 3.01736 73.4552 2.07269C73.4552 1.12801 72.9764 0.00107945 70.6956 0.00107945L70.6967 0ZM70.6223 3.89518H69.7358V0.246954H70.6223C71.9573 0.271758 72.4534 0.765665 72.4534 2.07161C72.4534 3.37755 71.9573 3.87038 70.6212 3.89518H70.6223Z" fill="#231F20"/>
<path d="M27.236 10.1836H26.933V11.8788H28.1192V11.5887H27.236V10.1836Z" fill="#231F20"/>
<path d="M32.2809 10.1836L31.5131 11.8788H31.8323L32.0167 11.4669H32.7834L32.9657 11.8788H33.2935L32.5257 10.1836H32.2798H32.2809ZM32.1428 11.1811L32.4017 10.6052L32.6583 11.1811H32.1428Z" fill="#231F20"/>
<path d="M37.9424 10.4252C37.8626 10.3497 37.7666 10.2893 37.6566 10.2472C37.5477 10.2052 37.4259 10.1836 37.2965 10.1836H36.6882V11.8788H37.2965C37.4269 11.8788 37.5477 11.8573 37.6566 11.8141C37.7666 11.771 37.8626 11.7106 37.9413 11.6351C38.0211 11.5596 38.0837 11.468 38.1279 11.3655C38.171 11.2631 38.1937 11.1498 38.1937 11.0269C38.1937 10.904 38.1721 10.7961 38.1279 10.6937C38.0848 10.5912 38.0222 10.5006 37.9413 10.4252H37.9424ZM37.8421 11.2544C37.8141 11.3224 37.7753 11.3806 37.7267 11.4291C37.6771 11.4777 37.6157 11.5176 37.5434 11.5456C37.4701 11.5737 37.387 11.5887 37.2975 11.5887H36.9934V10.4737H37.2975C37.3881 10.4737 37.4701 10.4888 37.5434 10.5168C37.6157 10.5459 37.6771 10.5858 37.7267 10.6354C37.7763 10.6851 37.8152 10.7444 37.8432 10.8112C37.8712 10.8792 37.8842 10.9525 37.8842 11.0355C37.8842 11.1132 37.8702 11.1876 37.8432 11.2544H37.8421Z" fill="#231F20"/>
<path d="M41.8926 10.1836H41.5885V11.8788H41.8926V10.1836Z" fill="#231F20"/>
<path d="M45.5904 11.1682H46.4455V10.8802H45.5904V10.4715H46.5469V10.1836H45.2863V11.8788H46.5577V11.5909H45.5904V11.1682Z" fill="#231F20"/>
<path d="M51.1011 11.0572C51.0116 10.9839 50.88 10.9278 50.6988 10.8868C50.6179 10.8706 50.5522 10.8523 50.5004 10.834C50.453 10.8167 50.4163 10.7973 50.3915 10.7779C50.3699 10.7606 50.3548 10.7423 50.3473 10.724C50.3386 10.7035 50.3343 10.6787 50.3343 10.6463C50.3343 10.5946 50.3548 10.5536 50.399 10.518C50.4454 10.4803 50.5123 10.4608 50.5985 10.4608C50.6697 10.4608 50.7387 10.4727 50.8034 10.4964C50.8681 10.5202 50.935 10.559 51.0008 10.6129L51.0504 10.6539L51.2251 10.422L51.1776 10.3843C51.0946 10.3185 51.0072 10.2678 50.9177 10.2333C50.8272 10.1999 50.7215 10.1826 50.6029 10.1826C50.523 10.1826 50.4486 10.1945 50.3818 10.2171C50.3138 10.2409 50.2534 10.2732 50.2028 10.3153C50.151 10.3584 50.11 10.4091 50.082 10.4684C50.0529 10.5277 50.0388 10.5924 50.0388 10.6657C50.0388 10.7391 50.0507 10.7995 50.0744 10.8545C50.0982 10.9095 50.1359 10.958 50.1855 11C50.233 11.0389 50.2923 11.0723 50.3634 11.0993C50.4303 11.1251 50.5101 11.1478 50.6007 11.1672C50.6773 11.1834 50.7409 11.2017 50.7905 11.22C50.8358 11.2362 50.8703 11.2545 50.894 11.274C50.9145 11.2912 50.9296 11.3085 50.9372 11.3268C50.9458 11.3473 50.9501 11.3721 50.9501 11.4034C50.9501 11.4605 50.9285 11.5047 50.8811 11.5414C50.8304 11.5813 50.7603 11.6018 50.6719 11.6018C50.5748 11.6018 50.4885 11.5856 50.4152 11.5533C50.3397 11.5198 50.2642 11.4692 50.1898 11.4012L50.1424 11.3581L49.9558 11.5791L50 11.619C50.0971 11.7064 50.2006 11.7733 50.3084 11.8153C50.4163 11.8585 50.5371 11.88 50.6665 11.88C50.7484 11.88 50.825 11.8692 50.8951 11.8466C50.9663 11.8239 51.0288 11.7905 51.0795 11.7474C51.1313 11.7042 51.1733 11.6514 51.2024 11.5899C51.2326 11.5285 51.2477 11.4594 51.2477 11.3807C51.2477 11.2459 51.1992 11.137 51.1043 11.0583L51.1011 11.0572Z" fill="#231F20"/>
</svg>
