<svg width="62" height="9" viewBox="0 0 62 9" fill="none" xmlns="http://www.w3.org/2000/svg">
<path d="M55.0914 6.90233V0.019982C55.1507 0.01459 55.2035 0.00488281 55.2564 0.00488281C55.9012 0.00596121 56.5472 0.005962 57.1921 0.0124324C57.6795 0.016746 58.1637 0.0588019 58.6339 0.189288C59.9075 0.541925 60.7012 1.36582 60.973 2.6599C61.1531 3.52047 61.1024 4.3724 60.7336 5.18444C60.4176 5.88001 59.901 6.36421 59.1828 6.63812C58.7353 6.80851 58.2748 6.89694 57.8014 6.90449C56.9268 6.91743 56.0522 6.91311 55.1787 6.91635C55.1582 6.91635 55.1377 6.90988 55.0924 6.90341L55.0914 6.90233ZM56.2841 0.485848C56.2312 0.755448 56.2453 6.30274 56.3024 6.47528C56.7909 6.45803 57.2902 6.45372 57.7874 6.42029C58.5757 6.36637 59.1429 5.97598 59.4675 5.24914C59.5236 5.12297 59.5775 4.99356 59.6163 4.862C59.8115 4.1977 59.8202 3.52262 59.7209 2.84323C59.6552 2.39462 59.5355 1.96002 59.2939 1.57072C58.9445 1.0078 58.4635 0.624964 57.7863 0.538692C57.5393 0.507419 57.2902 0.479381 57.0411 0.471832C56.7866 0.463205 56.5321 0.481536 56.2841 0.486928V0.485848Z" fill="black"/>
<path d="M4.93062 6.62772C4.98454 6.66223 5.04493 6.6935 5.09885 6.73556C5.33287 6.91889 5.57982 7.09036 5.79442 7.29525C6.05647 7.54544 5.95942 7.90778 5.60031 8.04151C5.55825 7.98543 5.51188 7.92611 5.46659 7.8668C5.16895 7.47534 4.81416 7.14967 4.37633 6.91781C4.27604 6.86497 4.18114 6.84125 4.06035 6.86066C3.45753 6.95771 2.84715 6.97497 2.27237 6.75066C1.02682 6.2643 0.244976 5.37786 0.0454722 4.02986C-0.0505054 3.38174 0.00341386 2.7444 0.226643 2.12432C0.582515 1.13759 1.80542 0.00958334 3.24724 0.0376217C3.57184 0.0440921 3.90399 0.0516387 4.21888 0.119578C5.58306 0.415059 6.60214 1.5765 6.75635 2.97303C6.83616 3.69016 6.76282 4.38573 6.45764 5.04571C6.16431 5.67765 5.68335 6.13705 5.09885 6.49939C5.04601 6.53174 4.99317 6.56518 4.94033 6.59861C4.93602 6.60076 4.93602 6.60939 4.92954 6.62988L4.93062 6.62772ZM5.46012 3.49066C5.46012 3.29654 5.46767 3.10243 5.45796 2.90832C5.44071 2.55461 5.4062 2.20089 5.29297 1.86443C5.04817 1.13759 4.57152 0.656621 3.79722 0.523978C3.59449 0.489469 3.38204 0.495941 3.17499 0.502412C2.76843 0.514274 2.42442 0.674953 2.1408 0.968278C1.80434 1.31552 1.57788 1.721 1.46033 2.18903C1.29749 2.83607 1.2921 3.49281 1.35465 4.15172C1.39563 4.582 1.49161 5.00149 1.69974 5.38433C1.9014 5.75637 2.16561 6.0745 2.54952 6.27293C2.61853 6.30851 2.71128 6.33547 2.78353 6.32038C3.19116 6.23842 3.59772 6.24381 4.00428 6.31607C4.12182 6.33656 4.21996 6.32038 4.32133 6.2643C4.84651 5.97313 5.19375 5.54609 5.33502 4.95836C5.45149 4.47631 5.47306 3.98457 5.45904 3.49174L5.46012 3.49066Z" fill="black"/>
<path d="M53.3346 0.022777H53.808C53.8554 0.164047 53.8695 6.63768 53.822 6.90081C53.7983 6.90512 53.7724 6.9116 53.7465 6.91591C53.5621 6.94826 53.4457 6.86846 53.3335 6.71964C51.9521 4.89391 50.5652 3.07357 49.1784 1.25215C49.1288 1.18745 49.0781 1.12382 49.007 1.06343C48.9703 1.69214 48.9822 2.31761 48.98 2.94309C48.9778 3.57395 48.98 4.20481 48.98 4.83676V6.7369H48.5422V0.026012C48.6004 0.02062 48.6532 0.0109162 48.7061 0.0109162C48.9703 0.00983776 49.2334 0.0195424 49.4966 0.00660164C49.6518 -0.000947161 49.7478 0.048659 49.8416 0.174832C50.5092 1.07853 51.1853 1.97576 51.8593 2.87515C52.2875 3.4467 52.7156 4.01933 53.1437 4.59088C53.189 4.65127 53.2354 4.71166 53.2893 4.78176C53.3572 4.71058 53.3324 4.63186 53.3324 4.56392C53.3346 3.13504 53.3335 1.70616 53.3335 0.277281V0.0216975L53.3346 0.022777Z" fill="black"/>
<path d="M24.9522 1.07931V6.73768H24.5144V0.010621H24.7603C25.0105 0.010621 25.2607 0.0192483 25.5098 0.00738592C25.6446 0.000915526 25.7222 0.0515976 25.8009 0.156202C26.8826 1.60773 27.9696 3.05602 29.0545 4.50431C29.1246 4.59705 29.1947 4.6898 29.2852 4.77607C29.3262 4.51078 29.3122 4.25089 29.3144 3.99099C29.3165 3.72786 29.3144 3.46366 29.3144 3.20053V0.0267963H29.8093V6.90375C29.7543 6.90914 29.708 6.91238 29.6616 6.91885C29.5247 6.93718 29.4341 6.8865 29.3489 6.77219C28.6943 5.90192 28.0332 5.03704 27.3732 4.17001C26.6216 3.18219 25.87 2.19438 25.1172 1.20657C25.0806 1.15804 25.0385 1.11275 24.9997 1.0653C24.9835 1.07069 24.9684 1.07608 24.9522 1.08147V1.07931Z" fill="black"/>
<path d="M8.00518 0.0224609H9.16446C9.1677 0.108733 9.17417 0.189614 9.17417 0.269415C9.17417 1.35105 9.17201 2.43376 9.17525 3.5154C9.17633 3.96617 9.19897 4.41694 9.19681 4.86771C9.19142 5.79945 9.76297 6.2211 10.4715 6.31816C11.0549 6.39796 11.6211 6.33326 12.143 6.03238C12.6186 5.75847 12.9087 5.35515 12.9637 4.80301C13.0003 4.43851 13.0316 4.07078 13.0348 3.70412C13.0435 2.55994 13.0381 1.41467 13.0381 0.270492V0.0267755H13.4727C13.4781 0.0720683 13.4899 0.124909 13.4899 0.177751C13.4899 1.46105 13.4953 2.74434 13.4856 4.02764C13.4835 4.36626 13.45 4.70703 13.4015 5.04241C13.3131 5.65818 12.9615 6.11219 12.4547 6.44649C12.06 6.70638 11.6157 6.84226 11.1466 6.89187C10.5826 6.95118 10.0229 6.92854 9.48043 6.74736C9.31652 6.69237 9.15691 6.62227 9.00486 6.54139C8.34811 6.19091 8.02351 5.62367 7.9642 4.89575C7.94803 4.69625 7.96205 4.49351 7.96636 4.29293C7.97714 3.82814 7.99871 3.36442 8.00195 2.90071C8.00734 2.01966 8.0041 1.1386 8.0041 0.257551V0.0235404L8.00518 0.0224609Z" fill="black"/>
<path d="M45.1894 4.46978H42.8892C42.5743 5.28397 42.2605 6.09709 41.9467 6.9102H41.3956C41.4118 6.74952 43.9687 0.512054 44.2189 0.0224609H44.5586C45.5259 2.30328 46.4975 4.58948 47.481 6.90697C47.2513 6.9253 47.0475 6.91452 46.8448 6.91559C46.6366 6.91775 46.4285 6.91559 46.2042 6.91559C45.8678 6.10248 45.5324 5.29152 45.1916 4.46763L45.1894 4.46978ZM45.0007 4.00284C44.6718 3.20805 44.3591 2.43916 44.0312 1.67565C44.0172 1.67673 44.0032 1.67888 43.9892 1.67996C43.6797 2.4467 43.3713 3.21345 43.0531 4.00176H44.9996L45.0007 4.00284Z" fill="black"/>
<path d="M19.5645 0.015625H23.6656V0.459925H20.7604V3.05995H22.6563V3.49993C22.4492 3.52258 22.2432 3.50748 22.0383 3.51072C21.8237 3.51288 21.6081 3.51072 21.3935 3.51072H20.7604V6.45583H23.6473V6.89474H19.5634V0.015625H19.5645Z" fill="black"/>
<path d="M15.9001 3.5143V6.45402H18.788V6.89508H14.7354C14.6933 6.73979 14.675 0.421449 14.7149 0.0364602C14.8605 -0.00451903 18.5475 -0.0153026 18.8182 0.026755C18.8215 0.0903805 18.8268 0.15724 18.8279 0.224101C18.8301 0.29204 18.8279 0.361057 18.8279 0.459191C18.3286 0.461348 17.8455 0.459191 17.3624 0.459191C16.8836 0.459191 16.4058 0.459191 15.9324 0.459191C15.8796 0.618794 15.8688 2.81118 15.9206 3.06353H17.8088V3.50567C17.178 3.51753 16.5503 3.50352 15.9001 3.5143Z" fill="black"/>
<path d="M34.5758 1.01525C34.4454 1.11877 34.3278 1.21259 34.1984 1.31504C34.1413 1.23416 34.0949 1.1673 34.0464 1.10152C33.7142 0.653983 33.2742 0.451242 32.7145 0.48575C32.0869 0.524573 31.7084 1.29671 32.0988 1.84885C32.1937 1.98257 32.3155 2.10551 32.4471 2.20256C32.7156 2.39883 32.9971 2.57677 33.2764 2.75686C33.6322 2.98548 34 3.19577 34.3483 3.43625C35.4418 4.1879 35.3221 5.93167 34.2761 6.60675C34.0388 6.75988 33.7811 6.85694 33.505 6.90223C32.5161 7.06399 31.3935 6.53126 30.8629 5.63619C30.9104 5.58119 30.9621 5.51864 31.016 5.45825C31.0667 5.40218 31.1196 5.34826 31.1832 5.28139C31.2328 5.34394 31.2716 5.39894 31.3169 5.44855C31.5056 5.65991 31.676 5.89501 31.8917 6.0751C32.308 6.42234 32.7997 6.55391 33.3325 6.41479C33.931 6.2595 34.2868 5.62864 34.1262 5.05601C34.0701 4.85543 33.9579 4.68612 33.7983 4.55995C33.5643 4.37662 33.3217 4.203 33.0704 4.04231C32.79 3.8633 32.4945 3.70909 32.212 3.53223C32.0362 3.42223 31.8615 3.30361 31.7073 3.16665C31.1314 2.65873 30.919 2.02139 31.1002 1.27298C31.291 0.481439 32.0492 -0.0415859 32.8881 0.0252749C33.0672 0.0392941 33.2462 0.0716458 33.4209 0.112625C33.9331 0.231249 34.2761 0.57418 34.578 1.01201L34.5758 1.01525Z" fill="black"/>
<path d="M40.9351 6.45952V6.90382H36.0931V0.0300991C36.2818 -0.0076449 36.4748 0.0171579 36.6668 0.0128443C36.8534 0.0085307 37.041 0.0128443 37.2524 0.0128443C37.2578 0.108822 37.2675 0.195093 37.2675 0.281365C37.2675 2.24405 37.2675 4.20782 37.2675 6.17051V6.4606H40.9351V6.45952Z" fill="black"/>
</svg>
